#tb 0: 2/25
#media_type 0: video
#codec_id 0: rawvideo
#dimensions 0: 352x288
#sar 0: 0/1
0,          0,          0,        1,   152064, 0x778ab0c1
0,          1,          1,        1,   152064, 0xdc30f7c3
0,          2,          2,        1,   152064, 0xcb637467
0,          3,          3,        1,   152064, 0xcbf778ce
0,          4,          4,        1,   152064, 0x573d9f6d
0,          5,          5,        1,   152064, 0xd794df2c
0,          6,          6,        1,   152064, 0x3e885448
0,          7,          7,        1,   152064, 0xccec1794
0,          8,          8,        1,   152064, 0x6f32f51a
0,          9,          9,        1,   152064, 0x0657f5ac
0,         10,         10,        1,   152064, 0xfa82d600
0,         11,         11,        1,   152064, 0x15ff7f32
0,         12,         12,        1,   152064, 0x1cac0342
0,         13,         13,        1,   152064, 0x6afb7c49
0,         14,         14,        1,   152064, 0x6c47d554
0,         15,         15,        1,   152064, 0xe0fbd132
0,         16,         16,        1,   152064, 0x4f891e8d
0,         17,         17,        1,   152064, 0x88554045
0,         18,         18,        1,   152064, 0x0c8e6192
0,         19,         19,        1,   152064, 0xf73c91c3
0,         20,         20,        1,   152064, 0x49ac328d
0,         21,         21,        1,   152064, 0xf18ebd82
0,         22,         22,        1,   152064, 0x3359760d
0,         23,         23,        1,   152064, 0x5c85601a
0,         24,         24,        1,   152064, 0x28c1657b
